<svg width="130" height="32" viewBox="0 0 130 32" fill="none" xmlns="http://www.w3.org/2000/svg">
<g clip-path="url(#clip0_1802_588)">
<path d="M16.6255 0.30188L37.1375 20.7309V31.6981H27.5652V24.6734L12.6671 9.83541H9.57228V31.6981H0V0.30188H16.6255ZM27.5652 11.1974V0.30188H37.1375V11.1974H27.5652Z" fill="url(#paint0_linear_1802_588)"/>
</g>
<path d="M53.0866 22V12.1818H55.8097V22H53.0866ZM54.4545 10.9162C54.0497 10.9162 53.7024 10.782 53.4126 10.5135C53.1271 10.2408 52.9844 9.91477 52.9844 9.53551C52.9844 9.16051 53.1271 8.83878 53.4126 8.57031C53.7024 8.29758 54.0497 8.16122 54.4545 8.16122C54.8594 8.16122 55.2045 8.29758 55.4901 8.57031C55.7798 8.83878 55.9247 9.16051 55.9247 9.53551C55.9247 9.91477 55.7798 10.2408 55.4901 10.5135C55.2045 10.782 54.8594 10.9162 54.4545 10.9162ZM62.427 22.1918C61.4341 22.1918 60.5755 21.9808 59.851 21.5589C59.1309 21.1328 58.5748 20.5405 58.1827 19.782C57.7907 19.0192 57.5946 18.1349 57.5946 17.1293C57.5946 16.1151 57.7907 15.2287 58.1827 14.4702C58.5748 13.7074 59.1309 13.1151 59.851 12.6932C60.5755 12.267 61.4341 12.054 62.427 12.054C63.4199 12.054 64.2765 12.267 64.9966 12.6932C65.7211 13.1151 66.2793 13.7074 66.6713 14.4702C67.0634 15.2287 67.2594 16.1151 67.2594 17.1293C67.2594 18.1349 67.0634 19.0192 66.6713 19.782C66.2793 20.5405 65.7211 21.1328 64.9966 21.5589C64.2765 21.9808 63.4199 22.1918 62.427 22.1918ZM62.4398 20.0824C62.8915 20.0824 63.2686 19.9545 63.5712 19.6989C63.8738 19.4389 64.1017 19.0852 64.2551 18.6378C64.4128 18.1903 64.4917 17.6811 64.4917 17.1101C64.4917 16.5391 64.4128 16.0298 64.2551 15.5824C64.1017 15.1349 63.8738 14.7812 63.5712 14.5213C63.2686 14.2614 62.8915 14.1314 62.4398 14.1314C61.9838 14.1314 61.6003 14.2614 61.2892 14.5213C60.9824 14.7812 60.7502 15.1349 60.5925 15.5824C60.4391 16.0298 60.3624 16.5391 60.3624 17.1101C60.3624 17.6811 60.4391 18.1903 60.5925 18.6378C60.7502 19.0852 60.9824 19.4389 61.2892 19.6989C61.6003 19.9545 61.9838 20.0824 62.4398 20.0824ZM77.199 14.9815L74.7061 15.1349C74.6635 14.9219 74.5719 14.7301 74.4313 14.5597C74.2907 14.3849 74.1053 14.2464 73.8752 14.1442C73.6493 14.0376 73.3787 13.9844 73.0634 13.9844C72.6415 13.9844 72.2857 14.0739 71.9959 14.2528C71.7061 14.4276 71.5613 14.6619 71.5613 14.956C71.5613 15.1903 71.655 15.3885 71.8425 15.5504C72.03 15.7124 72.3517 15.8423 72.8077 15.9403L74.5847 16.2983C75.5392 16.4943 76.2509 16.8097 76.7196 17.2443C77.1884 17.679 77.4228 18.25 77.4228 18.9574C77.4228 19.6009 77.2331 20.1655 76.8539 20.6513C76.4789 21.1371 75.9632 21.5163 75.307 21.7891C74.655 22.0575 73.9029 22.1918 73.0506 22.1918C71.7509 22.1918 70.7154 21.9212 69.9441 21.38C69.177 20.8345 68.7275 20.093 68.5953 19.1555L71.2736 19.0149C71.3546 19.4112 71.5506 19.7138 71.8617 19.9226C72.1728 20.1271 72.5712 20.2294 73.057 20.2294C73.5343 20.2294 73.9178 20.1378 74.2076 19.9545C74.5016 19.767 74.6507 19.5263 74.655 19.2322C74.6507 18.9851 74.5463 18.7827 74.3418 18.625C74.1373 18.4631 73.8219 18.3395 73.3958 18.2543L71.6955 17.9155C70.7367 17.7237 70.0229 17.3913 69.5542 16.9183C69.0897 16.4453 68.8574 15.8423 68.8574 15.1094C68.8574 14.4787 69.0279 13.9354 69.3688 13.4794C69.714 13.0234 70.1976 12.6719 70.8198 12.4247C71.4462 12.1776 72.1792 12.054 73.0186 12.054C74.2587 12.054 75.2346 12.3161 75.9462 12.8402C76.6621 13.3643 77.0797 14.0781 77.199 14.9815ZM84.3597 12.1818V14.2273H78.4471V12.1818H84.3597ZM79.7894 9.82955H82.5124V18.983C82.5124 19.2344 82.5508 19.4304 82.6275 19.571C82.7042 19.7074 82.8107 19.8033 82.9471 19.8587C83.0877 19.9141 83.2496 19.9418 83.4329 19.9418C83.5607 19.9418 83.6886 19.9311 83.8164 19.9098C83.9442 19.8842 84.0423 19.8651 84.1104 19.8523L84.5387 21.8786C84.4023 21.9212 84.2106 21.9702 83.9634 22.0256C83.7163 22.0852 83.4158 22.1214 83.0621 22.1342C82.4059 22.1598 81.8306 22.0724 81.3363 21.8722C80.8462 21.6719 80.4648 21.3608 80.1921 20.9389C79.9194 20.517 79.7852 19.9844 79.7894 19.3409V9.82955ZM86.1335 22V12.1818H88.7734V13.8949H88.8757C89.0547 13.2855 89.3551 12.8253 89.777 12.5142C90.1989 12.1989 90.6847 12.0412 91.2344 12.0412C91.3707 12.0412 91.5178 12.0497 91.6754 12.0668C91.8331 12.0838 91.9716 12.1072 92.0909 12.1371V14.5533C91.9631 14.5149 91.7862 14.4808 91.5604 14.451C91.3345 14.4212 91.1278 14.4062 90.9403 14.4062C90.5398 14.4062 90.1818 14.4936 89.8665 14.6683C89.5554 14.8388 89.3082 15.0774 89.125 15.3842C88.946 15.6911 88.8565 16.0447 88.8565 16.4453V22H86.1335ZM97.5162 22.1918C96.5062 22.1918 95.6369 21.9872 94.9082 21.5781C94.1838 21.1648 93.6255 20.581 93.2335 19.8267C92.8414 19.0682 92.6454 18.1712 92.6454 17.1357C92.6454 16.1257 92.8414 15.2393 93.2335 14.4766C93.6255 13.7138 94.1774 13.1193 94.889 12.6932C95.6049 12.267 96.4444 12.054 97.4075 12.054C98.0552 12.054 98.6582 12.1584 99.2164 12.3672C99.7789 12.5717 100.269 12.8807 100.687 13.294C101.108 13.7074 101.437 14.2273 101.671 14.8537C101.905 15.4759 102.023 16.2045 102.023 17.0398V17.7876H93.7321V16.1001H99.4593C99.4593 15.7081 99.3741 15.3608 99.2037 15.0582C99.0332 14.7557 98.7967 14.5192 98.4941 14.3487C98.1958 14.174 97.8485 14.0866 97.4522 14.0866C97.0389 14.0866 96.6724 14.1825 96.3528 14.3743C96.0375 14.5618 95.7903 14.8153 95.6113 15.1349C95.4324 15.4503 95.3407 15.8018 95.3365 16.1896V17.794C95.3365 18.2798 95.426 18.6996 95.6049 19.0533C95.7882 19.407 96.046 19.6797 96.3784 19.8714C96.7108 20.0632 97.1049 20.1591 97.5609 20.1591C97.8635 20.1591 98.1404 20.1165 98.3919 20.0312C98.6433 19.946 98.8585 19.8182 99.0375 19.6477C99.2164 19.4773 99.3528 19.2685 99.4466 19.0213L101.965 19.1875C101.837 19.7926 101.575 20.321 101.179 20.7727C100.787 21.2202 100.28 21.5696 99.6575 21.821C99.0396 22.0682 98.3258 22.1918 97.5162 22.1918ZM106.599 22.1854C105.973 22.1854 105.415 22.0767 104.925 21.8594C104.434 21.6378 104.047 21.3118 103.761 20.8814C103.48 20.4467 103.339 19.9055 103.339 19.2578C103.339 18.7124 103.439 18.2543 103.64 17.8835C103.84 17.5128 104.113 17.2145 104.458 16.9886C104.803 16.7628 105.195 16.5923 105.634 16.4773C106.077 16.3622 106.542 16.2812 107.028 16.2344C107.599 16.1747 108.059 16.1193 108.408 16.0682C108.758 16.0128 109.011 15.9318 109.169 15.8253C109.327 15.7187 109.405 15.5611 109.405 15.3523V15.3139C109.405 14.9091 109.278 14.5959 109.022 14.3743C108.77 14.1527 108.412 14.0419 107.948 14.0419C107.458 14.0419 107.068 14.1506 106.778 14.3679C106.488 14.581 106.297 14.8494 106.203 15.1733L103.684 14.9688C103.812 14.3722 104.064 13.8565 104.439 13.4219C104.814 12.983 105.297 12.6463 105.89 12.4119C106.486 12.1733 107.177 12.054 107.961 12.054C108.506 12.054 109.028 12.1179 109.527 12.2457C110.03 12.3736 110.475 12.5717 110.863 12.8402C111.255 13.1087 111.564 13.4538 111.79 13.8757C112.015 14.2933 112.128 14.794 112.128 15.3778V22H109.546V20.6385H109.469C109.312 20.9453 109.101 21.2159 108.836 21.4503C108.572 21.6804 108.255 21.8615 107.884 21.9936C107.513 22.1214 107.085 22.1854 106.599 22.1854ZM107.379 20.3061C107.78 20.3061 108.133 20.2273 108.44 20.0696C108.747 19.9077 108.988 19.6903 109.162 19.4176C109.337 19.1449 109.425 18.8359 109.425 18.4908V17.4489C109.339 17.5043 109.222 17.5554 109.073 17.6023C108.928 17.6449 108.764 17.6854 108.581 17.7237C108.398 17.7578 108.214 17.7898 108.031 17.8196C107.848 17.8452 107.682 17.8686 107.532 17.8899C107.213 17.9368 106.934 18.0114 106.695 18.1136C106.456 18.2159 106.271 18.3544 106.139 18.5291C106.007 18.6996 105.941 18.9126 105.941 19.1683C105.941 19.5391 106.075 19.8224 106.344 20.0185C106.616 20.2102 106.961 20.3061 107.379 20.3061ZM114.241 22V12.1818H116.836V13.9141H116.951C117.156 13.3388 117.497 12.8849 117.974 12.5526C118.451 12.2202 119.022 12.054 119.687 12.054C120.36 12.054 120.933 12.2223 121.406 12.5589C121.879 12.8913 122.195 13.343 122.352 13.9141H122.455C122.655 13.3516 123.017 12.902 123.541 12.5653C124.07 12.2244 124.694 12.054 125.414 12.054C126.33 12.054 127.074 12.3459 127.645 12.9297C128.22 13.5092 128.508 14.3317 128.508 15.397V22H125.791V15.9339C125.791 15.3885 125.646 14.9794 125.357 14.7067C125.067 14.4339 124.705 14.2976 124.27 14.2976C123.776 14.2976 123.39 14.4553 123.113 14.7706C122.836 15.0817 122.698 15.4929 122.698 16.0043V22H120.058V15.8764C120.058 15.3949 119.919 15.0114 119.642 14.7259C119.369 14.4403 119.009 14.2976 118.562 14.2976C118.259 14.2976 117.987 14.3743 117.744 14.5277C117.505 14.6768 117.316 14.8878 117.175 15.1605C117.034 15.429 116.964 15.7443 116.964 16.1065V22H114.241Z" fill="white"/>
<defs>
<linearGradient id="paint0_linear_1802_588" x1="37.1375" y1="0.30188" x2="6.17891" y2="36.9218" gradientUnits="userSpaceOnUse">
<stop stop-color="#EDBAFF"/>
<stop offset="1" stop-color="#A1FFFF"/>
</linearGradient>
<clipPath id="clip0_1802_588">
<rect width="37.8182" height="32" fill="white"/>
</clipPath>
</defs>
</svg>
